<svg data-v-fde0c5aa="" xmlns="http://www.w3.org/2000/svg" viewBox="0 0 300 300" class="iconLeft"><!----><defs data-v-fde0c5aa=""><!----></defs><rect data-v-fde0c5aa="" fill="transparent" x="0" y="0" width="300px" height="300px" class="logo-background-square"></rect><defs data-v-fde0c5aa=""><!----></defs><g data-v-fde0c5aa="" id="185ef7e5-9d05-4f14-9a7a-8efdf94e845c" fill="#000000" transform="matrix(2.2339836371152444,0,0,2.2339836371152444,78.51116583740179,132.86534480026344)"><path d="M4.94 12.81L4.94 12.81Q2.95 12.81 1.90 11.84Q0.84 10.87 0.84 9.06L0.84 9.06L0.84 3.04L2.86 3.04L2.86 8.91Q2.86 10.05 3.40 10.64Q3.94 11.23 5.00 11.23L5.00 11.23Q6.08 11.23 6.66 10.61Q7.24 9.99 7.24 8.84L7.24 8.84L7.24 3.04L9.26 3.04L9.26 8.96Q9.26 10.79 8.12 11.80Q6.99 12.81 4.94 12.81ZM17.79 12.67L15.88 12.67L15.88 8.52Q15.88 6.58 14.56 6.58L14.56 6.58Q13.86 6.58 13.44 7.17Q13.01 7.77 13.01 8.71L13.01 8.71L13.01 12.67L11.09 12.67L11.09 6.93Q11.09 6.34 11.07 5.96Q11.05 5.58 11.03 5.28L11.03 5.28L12.87 5.28Q12.89 5.41 12.92 5.97Q12.95 6.54 12.95 6.75L12.95 6.75L12.98 6.75Q13.37 5.90 13.96 5.52Q14.55 5.13 15.36 5.13L15.36 5.13Q16.54 5.13 17.17 5.86Q17.79 6.58 17.79 7.98L17.79 7.98L17.79 12.67ZM21.56 3.94L19.64 3.94L19.64 2.53L21.56 2.53L21.56 3.94ZM21.56 12.67L19.64 12.67L19.64 5.28L21.56 5.28L21.56 12.67ZM31.34 9.90L31.34 9.90Q31.34 11.31 30.29 12.06Q29.24 12.81 27.21 12.81L27.21 12.81Q25.36 12.81 24.31 12.15Q23.26 11.50 22.96 10.17L22.96 10.17L24.90 9.84Q25.10 10.61 25.68 10.95Q26.25 11.30 27.27 11.30L27.27 11.30Q29.38 11.30 29.38 10.01L29.38 10.01Q29.38 9.60 29.14 9.34Q28.90 9.07 28.45 8.89Q28.01 8.72 26.76 8.46L26.76 8.46Q25.68 8.21 25.26 8.06Q24.83 7.90 24.49 7.69Q24.15 7.49 23.91 7.19Q23.67 6.90 23.54 6.50Q23.41 6.10 23.41 5.59L23.41 5.59Q23.41 4.29 24.39 3.59Q25.37 2.90 27.24 2.90L27.24 2.90Q29.03 2.90 29.93 3.46Q30.83 4.02 31.09 5.31L31.09 5.31L29.13 5.58Q28.98 4.96 28.52 4.64Q28.06 4.33 27.20 4.33L27.20 4.33Q25.37 4.33 25.37 5.48L25.37 5.48Q25.37 5.85 25.56 6.09Q25.76 6.33 26.14 6.50Q26.52 6.67 27.69 6.92L27.69 6.92Q29.08 7.21 29.68 7.46Q30.28 7.71 30.63 8.04Q30.97 8.37 31.16 8.84Q31.34 9.30 31.34 9.90ZM35.95 12.81L35.95 12.81Q34.27 12.81 33.35 11.81Q32.44 10.81 32.44 9.02L32.44 9.02Q32.44 7.18 33.36 6.16Q34.28 5.14 35.98 5.14L35.98 5.14Q37.28 5.14 38.14 5.80Q38.99 6.45 39.21 7.61L39.21 7.61L37.28 7.70Q37.19 7.14 36.87 6.80Q36.54 6.46 35.94 6.46L35.94 6.46Q34.45 6.46 34.45 8.94L34.45 8.94Q34.45 11.50 35.96 11.50L35.96 11.50Q36.51 11.50 36.88 11.15Q37.25 10.81 37.34 10.12L37.34 10.12L39.27 10.21Q39.16 10.97 38.72 11.57Q38.28 12.16 37.56 12.49Q36.85 12.81 35.95 12.81ZM42.52 6.75L42.55 6.75Q42.94 5.91 43.52 5.52Q44.11 5.14 44.93 5.14L44.93 5.14Q46.10 5.14 46.73 5.87Q47.36 6.59 47.36 7.98L47.36 7.98L47.36 12.67L45.45 12.67L45.45 8.53Q45.45 6.58 44.13 6.58L44.13 6.58Q43.43 6.58 43.00 7.18Q42.57 7.78 42.57 8.72L42.57 8.72L42.57 12.67L40.65 12.67L40.65 2.53L42.57 2.53L42.57 5.30Q42.57 6.04 42.52 6.75L42.52 6.75ZM52.23 12.81L52.23 12.81Q50.57 12.81 49.67 11.82Q48.77 10.83 48.77 8.94L48.77 8.94Q48.77 7.11 49.68 6.13Q50.59 5.14 52.26 5.14L52.26 5.14Q53.85 5.14 54.69 6.20Q55.54 7.25 55.54 9.29L55.54 9.29L55.54 9.34L50.79 9.34Q50.79 10.42 51.19 10.98Q51.59 11.53 52.33 11.53L52.33 11.53Q53.35 11.53 53.61 10.64L53.61 10.64L55.43 10.80Q54.64 12.81 52.23 12.81ZM52.23 6.35L52.23 6.35Q51.56 6.35 51.19 6.82Q50.83 7.29 50.80 8.14L50.80 8.14L53.68 8.14Q53.62 7.25 53.25 6.80Q52.87 6.35 52.23 6.35ZM63.64 12.67L61.78 12.67Q61.76 12.57 61.72 12.16Q61.68 11.74 61.68 11.47L61.68 11.47L61.65 11.47Q61.03 12.81 59.29 12.81L59.29 12.81Q58.00 12.81 57.29 11.80Q56.59 10.79 56.59 8.98L56.59 8.98Q56.59 7.14 57.33 6.14Q58.07 5.14 59.43 5.14L59.43 5.14Q60.22 5.14 60.79 5.47Q61.36 5.80 61.67 6.45L61.67 6.45L61.68 6.45L61.67 5.23L61.67 2.53L63.59 2.53L63.59 11.06Q63.59 11.74 63.64 12.67L63.64 12.67ZM61.69 8.93L61.69 8.93Q61.69 7.74 61.29 7.09Q60.89 6.45 60.12 6.45L60.12 6.45Q59.34 6.45 58.97 7.07Q58.59 7.70 58.59 8.98L58.59 8.98Q58.59 11.50 60.10 11.50L60.10 11.50Q60.86 11.50 61.28 10.83Q61.69 10.17 61.69 8.93ZM65.43 5.28L67.35 5.28L67.35 9.43Q67.35 11.38 68.67 11.38L68.67 11.38Q69.36 11.38 69.79 10.78Q70.22 10.18 70.22 9.24L70.22 9.24L70.22 5.28L72.14 5.28L72.14 11.02Q72.14 11.96 72.19 12.67L72.19 12.67L70.36 12.67Q70.28 11.69 70.28 11.20L70.28 11.20L70.25 11.20Q69.86 12.04 69.27 12.43Q68.68 12.81 67.87 12.81L67.87 12.81Q66.69 12.81 66.06 12.09Q65.43 11.37 65.43 9.97L65.43 9.97L65.43 5.28ZM81.24 12.67L74.05 12.67L74.05 3.04L76.07 3.04L76.07 11.12L81.24 11.12L81.24 12.67Z"></path></g><defs data-v-fde0c5aa=""><linearGradient data-v-fde0c5aa="" gradientTransform="rotate(25)" id="e7269908-d5de-49e6-828b-1aee619a4d91" x1="0%" y1="0%" x2="100%" y2="0%"><stop data-v-fde0c5aa="" offset="0%" stop-color="#288B58" stop-opacity="1"></stop><stop data-v-fde0c5aa="" offset="100%" stop-color="#1522F1" stop-opacity="1"></stop></linearGradient></defs><g data-v-fde0c5aa="" id="cd61ba0e-c162-4ca9-95e2-7ef58b28d66c" stroke="none" fill="url(#e7269908-d5de-49e6-828b-1aee619a4d91)" transform="matrix(0.38904104017306,0,0,0.38904104017306,34.24180593001216,130.55105935205228)"><path d="M85.199 6.8c0-.6-.48-1.077-1.078-1.077l-58.242-.004c-6.11 0-11.078 4.969-11.078 11.078v55.949c0 6.11 4.969 11.078 11.078 11.078h24.988c.21 0 .41-.059.578-.172v5.25c0 .39.211.75.55.941l7.661 4.282c.16.09.352.14.531.14s.371-.05.531-.14l7.532-4.282c.34-.191.55-.55.55-.941v-5.078h15.32c.602 0 1.079-.48 1.079-1.078V60.91c0-.051 0-.102-.012-.14.012-.052.012-.09.012-.142zM16.961 16.81c0-4.922 4-8.93 8.922-8.93H83.03v51.95H25.879c-3.66 0-6.898 1.78-8.922 4.519zm49.68 71.48l-6.45 3.672-6.57-3.68V72.91h13.031l-.003 15.379zm16.398-6.61H68.801v-9.851c0-.602-.48-1.078-1.078-1.078H32.282c-.602 0-1.078.48-1.078 1.078 0 .601.48 1.078 1.078 1.078h19.172v8.941a1.077 1.077 0 00-.578-.172l-24.996.004c-4.922 0-8.922-4-8.922-8.93v-1.84c0-4.921 4-8.929 8.922-8.929h57.148l.004 19.7zM40.43 42.2c0 .602.48 1.079 1.078 1.079h1.04v1.93c0 .6.48 1.077 1.077 1.077.602 0 1.078-.48 1.078-1.078v-1.93h2.09v4.11c0 .601.48 1.078 1.078 1.078.602 0 1.078-.48 1.078-1.078v-4.11h2.078v1.93c0 .602.481 1.078 1.079 1.078.601 0 1.078-.48 1.078-1.078v-1.93h2.09v4.11c0 .601.48 1.078 1.078 1.078.601 0 1.078-.48 1.078-1.078v-4.11h1.039c.601 0 1.078-.48 1.078-1.078V41.16h4.11c.6 0 1.077-.48 1.077-1.078.028-.601-.464-1.082-1.062-1.082h-4.11v-2.09h1.93c.602 0 1.078-.48 1.078-1.078 0-.601-.48-1.078-1.078-1.078h-1.93v-2.078h4.11c.601 0 1.078-.48 1.078-1.078 0-.602-.48-1.078-1.078-1.078h-4.11v-2.09h1.93c.602 0 1.078-.48 1.078-1.078 0-.602-.48-1.078-1.078-1.078h-1.93v-1.04c0-.6-.48-1.077-1.078-1.077h-1.039v-4.11c0-.601-.48-1.078-1.078-1.078-.601 0-1.078.48-1.078 1.078v4.11l-2.09-.016v-1.93c0-.601-.48-1.078-1.078-1.078-.601 0-1.078.48-1.078 1.078v1.93h-2.078v-4.11c0-.6-.48-1.077-1.078-1.077-.602 0-1.078.48-1.078 1.078v4.11h-2.09v-1.93c0-.602-.48-1.079-1.078-1.079-.602 0-1.078.48-1.078 1.078v1.93h-1.04c-.6 0-1.077.48-1.077 1.078v1.04h-1.93c-.602 0-1.078.48-1.078 1.077 0 .602.48 1.078 1.078 1.078h1.93v2.09h-4.102c-.602 0-1.078.48-1.078 1.078 0 .602.48 1.078 1.078 1.078h4.102v2.079h-1.93c-.602 0-1.078.48-1.078 1.078 0 .601.48 1.078 1.078 1.078h1.93L40.43 39h-4.102c-.601 0-1.078.48-1.078 1.078 0 .602.48 1.078 1.078 1.078h4.102zm2.16-15.89H57.4v14.808l-14.81.004zM50 54.14c11.262 0 20.422-9.16 20.422-20.422S61.262 13.288 50 13.288s-20.422 9.16-20.422 20.43c0 11.262 9.16 20.422 20.422 20.422zm0-38.69c10.07 0 18.262 8.199 18.262 18.27S60.071 51.98 50 51.98 31.738 43.79 31.738 33.72C31.731 23.641 39.93 15.45 50 15.45z"></path></g><!----></svg>